<mxfile host="app.diagrams.net" modified="2023-06-01T03:31:20.620Z" agent="Mozilla/5.0 (Windows NT 10.0; Win64; x64; rv:109.0) Gecko/20100101 Firefox/113.0" etag="FK_1M_JauLFVveLoyjbG" version="21.3.6" type="device">
  <diagram name="Page-1" id="TtwZJ9YMyL45LSqe0QGF">
    <mxGraphModel dx="1563" dy="596" grid="1" gridSize="10" guides="1" tooltips="1" connect="1" arrows="1" fold="1" page="1" pageScale="1" pageWidth="850" pageHeight="1100" math="0" shadow="0">
      <root>
        <mxCell id="0" />
        <mxCell id="1" parent="0" />
        <mxCell id="2fGCAzGPFohAxpp_c-tU-32" value="" style="rounded=1;whiteSpace=wrap;html=1;fillColor=#d5e8d4;strokeColor=#82b366;" vertex="1" parent="1">
          <mxGeometry x="380" y="510" width="190" height="100" as="geometry" />
        </mxCell>
        <mxCell id="2fGCAzGPFohAxpp_c-tU-28" value="" style="rounded=1;whiteSpace=wrap;html=1;fillColor=#E6E8E6;strokeColor=#82b366;" vertex="1" parent="1">
          <mxGeometry x="110" y="170" width="670" height="270" as="geometry" />
        </mxCell>
        <mxCell id="2fGCAzGPFohAxpp_c-tU-13" value="" style="rounded=1;whiteSpace=wrap;html=1;fillColor=#d5e8d4;strokeColor=#82b366;" vertex="1" parent="1">
          <mxGeometry x="130" y="300" width="620" height="100" as="geometry" />
        </mxCell>
        <mxCell id="2fGCAzGPFohAxpp_c-tU-4" style="edgeStyle=orthogonalEdgeStyle;rounded=0;orthogonalLoop=1;jettySize=auto;html=1;entryX=0.5;entryY=0;entryDx=0;entryDy=0;" edge="1" parent="1" source="2fGCAzGPFohAxpp_c-tU-1">
          <mxGeometry relative="1" as="geometry">
            <mxPoint x="410" y="190" as="targetPoint" />
          </mxGeometry>
        </mxCell>
        <mxCell id="2fGCAzGPFohAxpp_c-tU-21" style="edgeStyle=orthogonalEdgeStyle;rounded=0;orthogonalLoop=1;jettySize=auto;html=1;" edge="1" parent="1" source="2fGCAzGPFohAxpp_c-tU-1" target="2fGCAzGPFohAxpp_c-tU-5">
          <mxGeometry relative="1" as="geometry">
            <Array as="points">
              <mxPoint x="410" y="150" />
              <mxPoint x="190" y="150" />
            </Array>
          </mxGeometry>
        </mxCell>
        <mxCell id="2fGCAzGPFohAxpp_c-tU-1" value="Fetch data" style="rounded=1;whiteSpace=wrap;html=1;" vertex="1" parent="1">
          <mxGeometry x="370" y="80" width="80" height="30" as="geometry" />
        </mxCell>
        <mxCell id="2fGCAzGPFohAxpp_c-tU-5" value="&lt;div&gt;train.csv&lt;/div&gt;&lt;div&gt;test.csv&lt;/div&gt;" style="rounded=0;whiteSpace=wrap;html=1;" vertex="1" parent="1">
          <mxGeometry x="150" y="320" width="80" height="30" as="geometry" />
        </mxCell>
        <mxCell id="2fGCAzGPFohAxpp_c-tU-22" style="edgeStyle=orthogonalEdgeStyle;rounded=0;orthogonalLoop=1;jettySize=auto;html=1;entryX=0.5;entryY=0;entryDx=0;entryDy=0;" edge="1" parent="1" source="2fGCAzGPFohAxpp_c-tU-6" target="2fGCAzGPFohAxpp_c-tU-9">
          <mxGeometry relative="1" as="geometry" />
        </mxCell>
        <mxCell id="2fGCAzGPFohAxpp_c-tU-23" style="edgeStyle=orthogonalEdgeStyle;rounded=0;orthogonalLoop=1;jettySize=auto;html=1;entryX=0.5;entryY=0;entryDx=0;entryDy=0;" edge="1" parent="1" source="2fGCAzGPFohAxpp_c-tU-6" target="2fGCAzGPFohAxpp_c-tU-8">
          <mxGeometry relative="1" as="geometry">
            <Array as="points">
              <mxPoint x="410" y="270" />
              <mxPoint x="320" y="270" />
            </Array>
          </mxGeometry>
        </mxCell>
        <mxCell id="2fGCAzGPFohAxpp_c-tU-24" style="edgeStyle=orthogonalEdgeStyle;rounded=0;orthogonalLoop=1;jettySize=auto;html=1;entryX=0.5;entryY=0;entryDx=0;entryDy=0;" edge="1" parent="1" source="2fGCAzGPFohAxpp_c-tU-6" target="2fGCAzGPFohAxpp_c-tU-10">
          <mxGeometry relative="1" as="geometry">
            <Array as="points">
              <mxPoint x="410" y="270" />
              <mxPoint x="500" y="270" />
            </Array>
          </mxGeometry>
        </mxCell>
        <mxCell id="2fGCAzGPFohAxpp_c-tU-25" style="edgeStyle=orthogonalEdgeStyle;rounded=0;orthogonalLoop=1;jettySize=auto;html=1;" edge="1" parent="1" source="2fGCAzGPFohAxpp_c-tU-6" target="2fGCAzGPFohAxpp_c-tU-11">
          <mxGeometry relative="1" as="geometry">
            <Array as="points">
              <mxPoint x="410" y="270" />
              <mxPoint x="590" y="270" />
            </Array>
          </mxGeometry>
        </mxCell>
        <mxCell id="2fGCAzGPFohAxpp_c-tU-27" style="edgeStyle=orthogonalEdgeStyle;rounded=0;orthogonalLoop=1;jettySize=auto;html=1;entryX=0.5;entryY=0;entryDx=0;entryDy=0;" edge="1" parent="1" source="2fGCAzGPFohAxpp_c-tU-6" target="2fGCAzGPFohAxpp_c-tU-26">
          <mxGeometry relative="1" as="geometry">
            <Array as="points">
              <mxPoint x="410" y="270" />
              <mxPoint x="680" y="270" />
            </Array>
          </mxGeometry>
        </mxCell>
        <mxCell id="2fGCAzGPFohAxpp_c-tU-6" value="&lt;div&gt;Train Model&lt;/div&gt;&lt;div&gt;(Linear Regression)&lt;br&gt;&lt;/div&gt;" style="rounded=1;whiteSpace=wrap;html=1;" vertex="1" parent="1">
          <mxGeometry x="350" y="190" width="120" height="60" as="geometry" />
        </mxCell>
        <mxCell id="2fGCAzGPFohAxpp_c-tU-8" value="plots" style="rounded=0;whiteSpace=wrap;html=1;" vertex="1" parent="1">
          <mxGeometry x="280" y="320" width="80" height="30" as="geometry" />
        </mxCell>
        <mxCell id="2fGCAzGPFohAxpp_c-tU-17" style="edgeStyle=orthogonalEdgeStyle;rounded=0;orthogonalLoop=1;jettySize=auto;html=1;" edge="1" parent="1" source="2fGCAzGPFohAxpp_c-tU-9" target="2fGCAzGPFohAxpp_c-tU-15">
          <mxGeometry relative="1" as="geometry">
            <Array as="points">
              <mxPoint x="410" y="430" />
              <mxPoint x="475" y="430" />
            </Array>
          </mxGeometry>
        </mxCell>
        <mxCell id="2fGCAzGPFohAxpp_c-tU-9" value="weights" style="rounded=0;whiteSpace=wrap;html=1;" vertex="1" parent="1">
          <mxGeometry x="370" y="320" width="80" height="30" as="geometry" />
        </mxCell>
        <mxCell id="2fGCAzGPFohAxpp_c-tU-10" value="&lt;div&gt;params&lt;/div&gt;(lr, n_iter)" style="rounded=0;whiteSpace=wrap;html=1;" vertex="1" parent="1">
          <mxGeometry x="460" y="320" width="80" height="30" as="geometry" />
        </mxCell>
        <mxCell id="2fGCAzGPFohAxpp_c-tU-18" style="edgeStyle=orthogonalEdgeStyle;rounded=0;orthogonalLoop=1;jettySize=auto;html=1;entryX=0.5;entryY=0;entryDx=0;entryDy=0;" edge="1" parent="1" source="2fGCAzGPFohAxpp_c-tU-11" target="2fGCAzGPFohAxpp_c-tU-15">
          <mxGeometry relative="1" as="geometry">
            <Array as="points">
              <mxPoint x="590" y="430" />
              <mxPoint x="475" y="430" />
            </Array>
          </mxGeometry>
        </mxCell>
        <mxCell id="2fGCAzGPFohAxpp_c-tU-11" value="&lt;div&gt;test metrics&lt;/div&gt;&lt;div&gt;(r2, mse)&lt;br&gt;&lt;/div&gt;" style="rounded=0;whiteSpace=wrap;html=1;" vertex="1" parent="1">
          <mxGeometry x="550" y="320" width="80" height="30" as="geometry" />
        </mxCell>
        <mxCell id="2fGCAzGPFohAxpp_c-tU-14" value="&lt;h1 style=&quot;font-size: 17px;&quot;&gt;MLFlow Artifacts&lt;/h1&gt;" style="text;html=1;strokeColor=none;fillColor=none;spacing=5;spacingTop=-20;whiteSpace=wrap;overflow=hidden;rounded=0;fontSize=17;" vertex="1" parent="1">
          <mxGeometry x="150" y="367" width="150" height="30" as="geometry" />
        </mxCell>
        <mxCell id="2fGCAzGPFohAxpp_c-tU-20" style="edgeStyle=orthogonalEdgeStyle;rounded=0;orthogonalLoop=1;jettySize=auto;html=1;entryX=0.5;entryY=0;entryDx=0;entryDy=0;" edge="1" parent="1" source="2fGCAzGPFohAxpp_c-tU-15" target="2fGCAzGPFohAxpp_c-tU-19">
          <mxGeometry relative="1" as="geometry" />
        </mxCell>
        <mxCell id="2fGCAzGPFohAxpp_c-tU-15" value="Performance Check" style="rounded=1;whiteSpace=wrap;html=1;" vertex="1" parent="1">
          <mxGeometry x="410" y="460" width="130" height="40" as="geometry" />
        </mxCell>
        <mxCell id="2fGCAzGPFohAxpp_c-tU-19" value="&lt;div&gt;Promote Model to Prod&lt;/div&gt;" style="rounded=1;whiteSpace=wrap;html=1;" vertex="1" parent="1">
          <mxGeometry x="410" y="530" width="130" height="40" as="geometry" />
        </mxCell>
        <mxCell id="2fGCAzGPFohAxpp_c-tU-26" value="&lt;div&gt;train perf.&lt;/div&gt;&lt;div&gt;(losses)&lt;br&gt;&lt;/div&gt;" style="rounded=0;whiteSpace=wrap;html=1;" vertex="1" parent="1">
          <mxGeometry x="640" y="320" width="80" height="30" as="geometry" />
        </mxCell>
        <mxCell id="2fGCAzGPFohAxpp_c-tU-29" value="&lt;h1 style=&quot;font-size: 17px;&quot;&gt;MLFlow Experiment&lt;/h1&gt;" style="text;html=1;strokeColor=none;fillColor=none;spacing=5;spacingTop=-20;whiteSpace=wrap;overflow=hidden;rounded=0;fontSize=17;" vertex="1" parent="1">
          <mxGeometry x="580" y="180" width="190" height="30" as="geometry" />
        </mxCell>
        <mxCell id="2fGCAzGPFohAxpp_c-tU-31" value="&lt;h1&gt;Model Training&lt;br&gt;&lt;/h1&gt;&lt;p&gt;Triggered manually or in CI&lt;/p&gt;" style="text;html=1;spacing=5;spacingTop=-20;whiteSpace=wrap;overflow=hidden;rounded=0;labelBackgroundColor=none;labelBorderColor=none;" vertex="1" parent="1">
          <mxGeometry x="95" y="60" width="205" height="90" as="geometry" />
        </mxCell>
        <mxCell id="2fGCAzGPFohAxpp_c-tU-33" value="&lt;h1 style=&quot;font-size: 17px;&quot;&gt;MLFlow Model Store&lt;br&gt;&lt;/h1&gt;" style="text;html=1;strokeColor=none;fillColor=none;spacing=5;spacingTop=-20;whiteSpace=wrap;overflow=hidden;rounded=0;fontSize=17;" vertex="1" parent="1">
          <mxGeometry x="390" y="580" width="180" height="30" as="geometry" />
        </mxCell>
      </root>
    </mxGraphModel>
  </diagram>
</mxfile>
